PathFileType	4	(X/Y/Z)	pose_F01_0-95.trc
DataRate	CameraRate	NumFrames	NumMarkers	Units	OrigDataRate	OrigDataStartFrame	OrigNumFrames
30	30	8	21	m	30	47	95
Frame#	Time	CHip			RHip			RKnee			RAnkle			RBigToe			RSmallToe			RHeel			LHip			LKnee			LAnkle			LBigToe			LSmallToe			LHeel			Neck			Nose			RShoulder			RElbow			RWrist			LShoulder			LElbow			LWrist			
		X1	Y1	Z1	X2	Y2	Z2	X3	Y3	Z3	X4	Y4	Z4	X5	Y5	Z5	X6	Y6	Z6	X7	Y7	Z7	X8	Y8	Z8	X9	Y9	Z9	X10	Y10	Z10	X11	Y11	Z11	X12	Y12	Z12	X13	Y13	Z13	X14	Y14	Z14	X15	Y15	Z15	X16	Y16	Z16	X17	Y17	Z17	X18	Y18	Z18	X19	Y19	Z19	X20	Y20	Z20	X21	Y21	Z21	
47	1.5666666666666667	-0.18606870970463693	1.8545667909684747	-0.5605904413123409	-0.20143822099877592	1.8527816479761154	-0.4913033468461455	-0.2013566461738421	1.7136484729034402	-0.4595197724844256	-0.1817621189869589	1.5935523292371783	-0.43637376076047846	-0.189813088881572	1.5489511433984808	-0.47223080463332695	-0.20524880836211673	1.5616712495339415	-0.4432771493583172	-0.17568386775111083	1.5910640413620585	-0.43837820162295243	-0.17100802349085437	1.8549425862701736	-0.6156478234642897	-0.16707237996255983	1.7167696612217915	-0.5987164490805458	-0.14770718555980414	1.5896039077678665	-0.6026019406221728	-0.17226080527700596	1.5441033519999703	-0.6103921035298246	-0.1572337583856969	1.5523908936896487	-0.6347702945377647	-0.1376725776186817	1.5819836925061417	-0.5818318054850941	-0.16987056955064606	2.0125837817765126	-0.5815674926240826	-0.19894594861161644	2.083884213118409	-0.6054016740470995	-0.1898465085065368	2.01006792398281	-0.5010084602120218	-0.20394003199957259	1.9361345614215326	-0.44838344567454314	-0.22957451278232796	1.9837022268384015	-0.45800590855855006	-0.14775263665313224	2.014809693159041	-0.6622746161695346	-0.1298007603693174	1.9571698227820886	-0.740582827773083	-0.14964691755839876	1.9965138075634477	-0.7545529853787902
48	1.6	-0.18682527001346852	1.8309890774225948	-0.556866467234889	-0.20020609783780405	1.8291943688800176	-0.48970938753223536	-0.20800795604347092	1.697833137114554	-0.4589103312346056	-0.17810888744124695	1.5972036477596459	-0.4407188094473617	-0.18703005118166424	1.5500424235146661	-0.4716288791918197	-0.20524880836211673	1.5616712495339415	-0.4432771493583172	-0.17144076440299996	1.5941846801671786	-0.44341358467830794	-0.17189634152447214	1.8313582032675577	-0.6118153574280917	-0.18402033947548943	1.6999858463440207	-0.5825086823268473	-0.14448183888284255	1.5797996258333122	-0.5924153782452036	-0.1763991024188544	1.5424468727711487	-0.6062354915747454	-0.16007362642691345	1.547538677215195	-0.6279115290423772	-0.1337976895978592	1.5708483285173482	-0.580811098642409	-0.17160952345853261	1.9883888496521502	-0.5724533251713725	-0.19760409772594428	2.0576959543585014	-0.5940661727910652	-0.18679725755016052	1.9821050387143717	-0.4921689847905824	-0.19567380390066194	1.906697852810003	-0.457665673182132	-0.22591293542866805	1.9900827709563051	-0.45652676671331865	-0.1497136234542585	1.9935677851018871	-0.6540519064241369	-1.3771567315170845	1.8579650082843382	0.5825787325543949	-0.1482818312807696	1.9711581887581122	-0.7474526677889034
49	1.6333333333333333	-0.18469330472415885	1.8205970479601374	-0.5524802823798362	-0.19897991225443473	1.8190768923223066	-0.4795670075287729	-0.20607355414001688	1.6866411249028401	-0.48668271029619703	-0.174455655895535	1.6008549662821132	-0.44506385813424487	-0.1842470134817565	1.5511337036308512	-0.4710269537503125	-0.20524880836211673	1.5616712495339415	-0.4432771493583172	-0.1671976610548891	1.5973053189722988	-0.44844896773366344	-0.17050590981664335	1.8225122718826585	-0.6110298387044529	-0.18284680348762403	1.697114788944816	-0.5968196490148481	-0.1493579818192413	1.5765603129897898	-0.5744610069346199	-0.17394759528151713	1.5423032093368925	-0.6173373386098697	-0.1575724401858831	1.5461682487104174	-0.6305911722923075	-0.14383566546556628	1.5697945382975562	-0.5618717270662463	-1.7559461450494047	1.8875931893739912	1.1883485905701803	-0.19361127148254673	2.0524225046174895	-0.587974444838305	-0.1853315043514486	1.9712890736129853	-0.4853283519228664	-0.20417175992322134	1.9050565043889405	-0.4519432619617021	-0.22225135807500812	1.9964633150742088	-0.4550476248680873	-1.578834156880049	1.8867083615023637	0.88979206109723	-0.12786507253924595	1.9122397849920763	-0.72482880319973	-1.3186702325512891	1.880217140905832	0.477754855354369
50	1.6666666666666667	-0.18229485077944496	1.830468401545279	-0.5599191312112223	-0.1946443170953687	1.8283814148256434	-0.4979187559021024	-0.1916411823279697	1.7039750509730878	-0.49155497302379547	-0.17080242434982304	1.6045062848045808	-0.4494089068211281	-0.18146397578184878	1.5522249837470365	-0.4704250283088053	-0.20524880836211673	1.5616712495339415	-0.4432771493583172	-0.1629545577067782	1.600425957777419	-0.4534843507890189	-0.16512919601786255	1.832866929845509	-0.6176189799200098	-0.16632901706681336	1.7091071174398447	-0.6073994442879136	-0.14755873993566987	1.5799384312429916	-0.5728642776989885	-0.1721055099167904	1.5429065012060528	-0.6109471057607119	-0.15664069169358433	1.549465881096843	-0.6276712823025933	-0.14393969734040843	1.5737037368645075	-0.5496757765624012	-1.7562828136906408	1.888699375648599	1.1883997853199597	-0.1927191003296911	2.0614142277459027	-0.5864839217040335	-0.18140839591612604	1.9806217325117053	-0.49314005985606857	-0.20948007635102606	1.9300803086001403	-0.4413561713624978	-0.21858978072134821	2.0028438591921125	-0.4535684830228559	-1.590212545762462	1.8931403972516732	0.9074435210211831	-0.7482589028644188	1.9005052143223862	-0.07797182578300432	-1.2962481100524084	1.9012113097355012	0.4422675211852526
51	1.7	-0.1770214260961093	1.855475059615272	-0.5552734817171914	-0.1884701253831493	1.849501083510057	-0.48988247792074124	-0.18356953302760512	1.7177617576091586	-0.4751116221047282	-0.16714919280411109	1.6081576033270482	-0.4537539555080113	-0.17868093808194102	1.5533162638632216	-0.469823102867298	-0.20524880836211673	1.5616712495339415	-0.4432771493583172	-0.15871145435866732	1.603546596582539	-0.4585197338443744	-0.1611852897091283	1.8562585664937692	-0.619423364928621	-0.15937432521493192	1.7220310175309386	-0.6031147980773645	-0.14679013883249542	1.5975515750990466	-0.5849012272093586	-0.1692900894409629	1.5506524255645175	-0.6111836106288077	-0.15517965164951225	1.5589877878105043	-0.6311261656374411	-0.1452776128895477	1.5867823818175892	-0.5723595675592851	-0.1601047185237834	2.0081653461837856	-0.5753226717219065	-0.1881457612221085	2.082280434989489	-0.594468620610312	-0.17922209586962978	2.004111381914893	-0.49957109892093055	-0.2147883927788308	1.95510411281134	-0.43076908076329345	-0.21492820336768828	2.009224403310016	-0.45208934117762456	-0.13846684865643216	2.015808991607307	-0.6598224506131716	-1.3686527331895917	1.888770643652696	0.5688851516337212	-0.7149082289401469	1.972388864291942	-0.16106283396762866
52	1.7333333333333334	-0.1729587913622744	1.8653453454356543	-0.5494638191178911	-0.18724440743780574	1.861779723503759	-0.4940157095990418	-0.18029488338468305	1.7322829386575613	-0.48078777170108844	-0.16349596125839913	1.6118089218495157	-0.4580990041948945	-0.1758979003820333	1.554407543979407	-0.4692211774257908	-0.20524880836211673	1.5616712495339415	-0.4432771493583172	-0.15446835101055645	1.6066672353876592	-0.4635551168997299	-0.15833793855901362	1.8673082171522801	-0.6165911133886086	-0.1582464835284462	1.7398922072071517	-0.5893182784765212	-0.14431770941817623	1.605920938194272	-0.5751346198389653	-0.16920570456161277	1.5624405277156315	-0.5824010543857322	-0.15529234369195402	1.569995146390737	-0.6102994710007955	-0.13487552011424683	1.601935693341495	-0.5585102315496865	-0.15807183143743694	2.019586167508835	-0.5804630668618783	-0.18349620498963595	2.0830908607289778	-0.5976610404905116	-0.17622707376881802	2.017169295659036	-0.5018895297982371	-0.20425705577858286	1.956170023467194	-0.43892049003407213	-0.21126662601402837	2.01560494742792	-0.45061019933239316	-0.13592712387226	2.0239637777769	-0.6615661606703265	-0.10963100816545424	1.9805141266925987	-0.7583534893395145	-0.1335683478278854	2.043566418848383	-0.7643931891205098
53	1.7666666666666666	-0.17150753444724443	1.8494109598212425	-0.5493613154197291	-0.18579927823698783	1.8460231327867294	-0.4939367057597973	-0.17866293613641906	1.7155176920947122	-0.4805214236725171	-0.15043100021294914	1.5930869285327827	-0.46140492300966895	-0.17311486268212556	1.555498824095592	-0.46861925198428356	-0.20524880836211673	1.5616712495339415	-0.4432771493583172	-0.1424063442755699	1.588118771467238	-0.46078640211511485	-0.1582146824244267	1.8500739081016722	-0.6108864823115875	-0.15363456294300487	1.720597800404598	-0.579222972330655	-0.1309891919391669	1.596736590391686	-0.5533331814198323	-0.15940864260487939	1.5533274928062941	-0.5572090377798324	-0.1461763360321237	1.5581097504389936	-0.5887705586130659	-0.12493699456964436	1.5867516567566686	-0.5413630684387742	-0.15172602544798178	2.007487266354606	-0.5745238078573595	-0.18277608070784074	2.0730789262044973	-0.5931744251344736	-0.1698231038505466	2.005538740004426	-0.49554151432645954	-0.17663438897302391	1.9257031444808983	-0.4719022840497749	-0.2096234276317203	1.9814416555626664	-0.47010117081686065	-0.12705811660415034	2.008564827412207	-0.6460117917361972	-1.473943167627331	1.8598725241813236	0.7367691313292336	-0.7995857595224588	1.958453991771676	-0.023715333902883495
54	1.8	-0.16972863012102826	1.8282402717740238	-0.5485214318980954	-0.18392480717057433	1.8262055866755693	-0.49308706249102074	-0.18077748819560963	1.7049194916989276	-0.4856204024202851	-0.1454987561371629	1.591388119695909	-0.462465882904352	-0.1730278124846502	1.5523602751730368	-0.46831420912109356	-0.20524880836211673	1.5616712495339415	-0.4432771493583172	-0.13785330045671523	1.5819181067012344	-0.45610609699220306	-0.15540808357430463	1.8304196456129027	-0.6072899388423285	-0.15925884942553029	1.7090395044868956	-0.5759739738664706	-0.12640324448285797	1.590638013881503	-0.5491557330092828	-0.15717156600284446	1.5526995146546356	-0.5594191869687521	-0.14120390717823536	1.557904958375996	-0.5811310086164808	-0.11571483419632535	1.5814931807599728	-0.5375622488005848	-0.15299635539429488	1.9819913918206669	-0.5732400377568233	-0.1784094355323952	2.0492634408853685	-0.591271359397552	-0.1711606234687053	1.9763421674568002	-0.49278792608815963	-0.16864558359729703	1.8970606402434382	-0.44849721826506594	-0.20385506215294927	1.937534632476729	-0.45885479218711084	-0.12619822976780323	1.9844476373357443	-0.6477290229099117	-0.1145249796936233	1.9093054483342065	-0.6820775862830918	-1.4656031712170323	1.873341564694969	0.7169625213147429
